<svg width="16" height="16" viewBox="0 0 16 16" fill="none" xmlns="http://www.w3.org/2000/svg">
<path d="M10.75 4.875V4.125C10.75 4.05625 10.6938 4 10.625 4H4.625C4.55625 4 4.5 4.05625 4.5 4.125V4.875C4.5 4.94375 4.55625 5 4.625 5H10.625C10.6938 5 10.75 4.94375 10.75 4.875ZM4.625 6.25C4.55625 6.25 4.5 6.30625 4.5 6.375V7.125C4.5 7.19375 4.55625 7.25 4.625 7.25H7.5C7.56875 7.25 7.625 7.19375 7.625 7.125V6.375C7.625 6.30625 7.56875 6.25 7.5 6.25H4.625ZM10.5 8.0625C8.63594 8.0625 7.125 9.57344 7.125 11.4375C7.125 13.3016 8.63594 14.8125 10.5 14.8125C12.3641 14.8125 13.875 13.3016 13.875 11.4375C13.875 9.57344 12.3641 8.0625 10.5 8.0625ZM12.1797 13.1172C11.7312 13.5656 11.1344 13.8125 10.5 13.8125C9.86563 13.8125 9.26875 13.5656 8.82031 13.1172C8.37187 12.6687 8.125 12.0719 8.125 11.4375C8.125 10.8031 8.37187 10.2063 8.82031 9.75781C9.26875 9.30937 9.86563 9.0625 10.5 9.0625C11.1344 9.0625 11.7312 9.30937 12.1797 9.75781C12.6281 10.2063 12.875 10.8031 12.875 11.4375C12.875 12.0719 12.6281 12.6687 12.1797 13.1172ZM11.8906 10.25H11.1984C11.1578 10.25 11.1203 10.2687 11.0969 10.3016L10.1047 11.6734L9.74375 11.175C9.73219 11.1589 9.71693 11.1458 9.69925 11.1368C9.68158 11.1279 9.66201 11.1233 9.64219 11.1234H8.95312C8.85156 11.1234 8.79219 11.2391 8.85156 11.3219L10.0047 12.9172C10.0547 12.9859 10.1563 12.9859 10.2063 12.9172L11.9906 10.4484C12.0516 10.3656 11.9922 10.25 11.8906 10.25ZM6.875 13.3125H3.25V2.3125H12V7.6875C12 7.75625 12.0562 7.8125 12.125 7.8125H13C13.0688 7.8125 13.125 7.75625 13.125 7.6875V1.6875C13.125 1.41094 12.9016 1.1875 12.625 1.1875H2.625C2.34844 1.1875 2.125 1.41094 2.125 1.6875V13.9375C2.125 14.2141 2.34844 14.4375 2.625 14.4375H6.875C6.94375 14.4375 7 14.3813 7 14.3125V13.4375C7 13.3687 6.94375 13.3125 6.875 13.3125Z" fill="#666666"/>
</svg>
