<svg width="16" height="16" viewBox="0 0 16 16" fill="none" xmlns="http://www.w3.org/2000/svg">
<path d="M7.99867 1.332C8.80133 1.332 9.57067 1.474 10.2833 1.73333L9.48667 2.52933C8.28101 2.20149 7.00081 2.28121 5.84514 2.7561C4.68947 3.23098 3.7231 4.07442 3.09629 5.15525C2.46948 6.23608 2.21737 7.49374 2.37915 8.73265C2.54093 9.97157 3.10754 11.1223 3.99088 12.0059C4.87422 12.8896 6.02477 13.4566 7.26363 13.6188C8.5025 13.781 9.76024 13.5293 10.8413 12.9028C11.9223 12.2764 12.7661 11.3103 13.2414 10.1548C13.7166 8.99927 13.7968 7.7191 13.4693 6.51333L14.2653 5.71733C14.5316 6.4489 14.6674 7.2215 14.6667 8C14.6667 11.6827 11.6813 14.668 7.99867 14.668C4.316 14.668 1.33067 11.6827 1.33067 8C1.33067 4.31733 4.316 1.332 7.99867 1.332ZM7.99867 4C8.33645 3.99985 8.6729 4.04241 9 4.12667V5.17133C8.3585 4.94438 7.65889 4.94225 7.01603 5.16531C6.37316 5.38836 5.82521 5.82334 5.46214 6.39885C5.09907 6.97436 4.94243 7.65621 5.01794 8.33247C5.09346 9.00874 5.39663 9.63924 5.87771 10.1205C6.35878 10.6017 6.98917 10.9051 7.66541 10.9809C8.34165 11.0567 9.02355 10.9003 9.59919 10.5374C10.1748 10.1745 10.61 9.62676 10.8333 8.98398C11.0566 8.34119 11.0547 7.64159 10.828 7H11.8727C12.0812 7.80774 12.032 8.66047 11.7319 9.43886C11.4318 10.2173 10.8959 10.8823 10.1991 11.341C9.5023 11.7997 8.67952 12.0291 7.8459 11.997C7.01229 11.965 6.20956 11.6731 5.55007 11.1622C4.89057 10.6513 4.40731 9.947 4.16792 9.14785C3.92852 8.34871 3.94498 7.49471 4.21498 6.70539C4.48498 5.91606 4.99502 5.2309 5.6737 4.7458C6.35239 4.2607 7.16577 3.99993 8 4H7.99867ZM9.332 8C9.33191 8.28657 9.23949 8.56549 9.06844 8.79542C8.89738 9.02534 8.6568 9.19404 8.38235 9.27651C8.1079 9.35897 7.81418 9.35082 7.54473 9.25325C7.27527 9.15569 7.04442 8.9739 6.88639 8.73484C6.72836 8.49578 6.65156 8.21217 6.66736 7.92603C6.68317 7.63989 6.79074 7.36646 6.97415 7.14626C7.15755 6.92606 7.40702 6.77081 7.68558 6.70352C7.96414 6.63623 8.25697 6.66047 8.52067 6.77267L9.66733 5.626L9.66667 3.5C9.66678 3.36744 9.71954 3.24035 9.81333 3.14667L11.48 1.48C11.5499 1.41016 11.639 1.36261 11.7359 1.34336C11.8328 1.3241 11.9333 1.334 12.0246 1.37181C12.1159 1.40962 12.194 1.47364 12.2489 1.55578C12.3039 1.63792 12.3332 1.73451 12.3333 1.83333V3.66667H14.1667C14.2655 3.66675 14.3621 3.69613 14.4442 3.75107C14.5264 3.80602 14.5904 3.88408 14.6282 3.97538C14.666 4.06669 14.6759 4.16716 14.6566 4.26409C14.6374 4.36102 14.5898 4.45008 14.52 4.52L12.8533 6.18667C12.7597 6.28046 12.6326 6.33322 12.5 6.33333H10.3733L9.22667 7.48C9.29467 7.64 9.332 7.81533 9.332 8ZM12.2927 5.33333L12.9593 4.66667H11.8327C11.7001 4.66667 11.5729 4.61399 11.4791 4.52022C11.3853 4.42645 11.3327 4.29928 11.3327 4.16667V3.04L10.6667 3.70667V5.294C10.6806 5.30653 10.6937 5.31989 10.706 5.334L12.2927 5.33333Z" fill="#666666"/>
</svg>
