<svg width="16" height="16" viewBox="0 0 16 16" fill="none" xmlns="http://www.w3.org/2000/svg">
<path fill-rule="evenodd" clip-rule="evenodd" d="M3.99996 0.833252C3.51373 0.833252 3.04741 1.02641 2.7036 1.37022C2.35978 1.71404 2.16663 2.18036 2.16663 2.66659V13.3333C2.16663 13.8195 2.35978 14.2858 2.7036 14.6296C3.04741 14.9734 3.51373 15.1666 3.99996 15.1666H12C12.4862 15.1666 12.9525 14.9734 13.2963 14.6296C13.6401 14.2858 13.8333 13.8195 13.8333 13.3333V5.56125C13.8333 5.31701 13.7844 5.07518 13.6897 4.85008C13.5949 4.62502 13.4562 4.42115 13.2815 4.25044L10.3215 1.35578C9.97904 1.02088 9.51904 0.833312 9.04002 0.833252H3.99996ZM3.4107 2.07733C3.56698 1.92105 3.77895 1.83325 3.99996 1.83325H8.83337V3.99992C8.83337 4.48615 9.02653 4.95246 9.37035 5.29628C9.71416 5.6401 10.1805 5.83325 10.6667 5.83325H12.8333V13.3333C12.8333 13.5543 12.7455 13.7662 12.5892 13.9225C12.4329 14.0788 12.221 14.1666 12 14.1666H3.99996C3.77895 14.1666 3.56698 14.0788 3.4107 13.9225C3.25442 13.7662 3.16663 13.5543 3.16663 13.3333V2.66659C3.16663 2.44557 3.25442 2.23361 3.4107 2.07733ZM12.4472 4.83325L9.83337 2.27707V3.99992C9.83337 4.22093 9.92117 4.43289 10.0775 4.58917C10.2337 4.74545 10.4457 4.83325 10.6667 4.83325H12.4472ZM5.33337 8H10.6667V9.33333H5.33337V8ZM8.66671 10.6667H5.33337V12.0001H8.66671V10.6667Z" fill="#666666"/>
</svg>
